<svg xmlns="http://www.w3.org/2000/svg" viewBox="0 0 246 211"><title>Asset 1</title><rect x="83.64" y="0.5" width="71.04" height="33" rx="11.5" ry="11.5" style="fill:#fff"/><path d="M143.18,1a11,11,0,0,1,11,11V22a11,11,0,0,1-11,11h-48a11,11,0,0,1-11-11V12a11,11,0,0,1,11-11h48m0-1h-48a12,12,0,0,0-12,12V22a12,12,0,0,0,12,12h48a12,12,0,0,0,12-12V12a12,12,0,0,0-12-12Z"/><text transform="translate(108.95 21.88)" style="font-size:12px;font-family:MyriadPro-Regular, Myriad Pro"><tspan style="letter-spacing:-0.0029703776041666665em">A</tspan><tspan x="7.31" y="0">pp</tspan></text><rect x="19.61" y="61.5" width="71.04" height="33" rx="11.5" ry="11.5" style="fill:#fff"/><path d="M79.15,62a11,11,0,0,1,11,11V83a11,11,0,0,1-11,11h-48a11,11,0,0,1-11-11V73a11,11,0,0,1,11-11h48m0-1h-48a12,12,0,0,0-12,12V83a12,12,0,0,0,12,12h48a12,12,0,0,0,12-12V73a12,12,0,0,0-12-12Z"/><text transform="translate(36.92 82.88)" style="font-size:12px;font-family:MyriadPro-Regular, Myriad Pro">use<tspan x="17.38" y="0" style="letter-spacing:-0.010009765625em">r</tspan><tspan x="21.18" y="0">ci</tspan><tspan x="29.36" y="0" style="letter-spacing:0.008992513020833334em">t</tspan><tspan x="33.44" y="0">y</tspan></text><rect x="151.67" y="61.5" width="71.04" height="33" rx="11.5" ry="11.5" style="fill:#fff"/><path d="M211.21,62a11,11,0,0,1,11,11V83a11,11,0,0,1-11,11h-48a11,11,0,0,1-11-11V73a11,11,0,0,1,11-11h48m0-1h-48a12,12,0,0,0-12,12V83a12,12,0,0,0,12,12h48a12,12,0,0,0,12-12V73a12,12,0,0,0-12-12Z"/><text transform="translate(155.98 82.88)" style="font-size:12px;font-family:MyriadPro-Regular, Myriad Pro"><tspan style="letter-spacing:-0.010009765625em">w</tspan><tspan x="8.71" y="0">o</tspan><tspan x="15.3" y="0" style="letter-spacing:0.0040283203125em">r</tspan><tspan x="19.27" y="0" style="letter-spacing:0.0169677734375em">k</tspan><tspan x="25.1" y="0">inga</tspan><tspan x="47.06" y="0" style="letter-spacing:-0.010009765625em">r</tspan><tspan x="50.87" y="0" style="letter-spacing:0.000040690104166666664em">ea</tspan></text><rect y="183.25" width="15" height="12.75" style="fill:none"/><rect x="6.97" y="184.19" width="1.5" height="2.37" style="fill:#231f20"/><rect x="6.97" y="188.44" width="1.5" height="2.37" style="fill:#231f20"/><rect x="6.97" y="192.67" width="1.5" height="2.37" style="fill:#231f20"/><rect y="170.5" width="15" height="12.75" style="fill:none"/><rect x="6.97" y="171.44" width="1.5" height="2.37" style="fill:#231f20"/><rect x="6.97" y="175.69" width="1.5" height="2.37" style="fill:#231f20"/><rect x="6.97" y="179.92" width="1.5" height="2.37" style="fill:#231f20"/><rect y="157.75" width="15" height="12.75" style="fill:none"/><rect x="6.97" y="158.69" width="1.5" height="2.37" style="fill:#231f20"/><rect x="6.97" y="162.94" width="1.5" height="2.37" style="fill:#231f20"/><rect x="6.97" y="167.17" width="1.5" height="2.37" style="fill:#231f20"/><rect y="145" width="15" height="12.75" style="fill:none"/><rect x="6.97" y="145.94" width="1.5" height="2.37" style="fill:#231f20"/><rect x="6.97" y="150.19" width="1.5" height="2.37" style="fill:#231f20"/><rect x="6.97" y="154.42" width="1.5" height="2.37" style="fill:#231f20"/><rect x="15" y="130" width="13.5" height="15" style="fill:none"/><rect x="25" y="136.97" width="2.51" height="1.5" style="fill:#231f20"/><rect x="20.5" y="136.97" width="2.51" height="1.5" style="fill:#231f20"/><rect x="16.02" y="136.97" width="2.51" height="1.5" style="fill:#231f20"/><rect x="28.5" y="130" width="13.5" height="15" style="fill:none"/><rect x="38.5" y="136.97" width="2.51" height="1.5" style="fill:#231f20"/><rect x="34" y="136.97" width="2.51" height="1.5" style="fill:#231f20"/><rect x="29.52" y="136.97" width="2.51" height="1.5" style="fill:#231f20"/><rect x="42" y="130" width="13.5" height="15" style="fill:none"/><rect x="52" y="136.97" width="2.51" height="1.5" style="fill:#231f20"/><rect x="47.5" y="136.97" width="2.51" height="1.5" style="fill:#231f20"/><rect x="43.02" y="136.97" width="2.51" height="1.5" style="fill:#231f20"/><rect x="55.5" y="130" width="13.5" height="15" style="fill:none"/><rect x="65.5" y="136.97" width="2.51" height="1.5" style="fill:#231f20"/><rect x="61" y="136.97" width="2.51" height="1.5" style="fill:#231f20"/><rect x="56.52" y="136.97" width="2.51" height="1.5" style="fill:#231f20"/><rect x="69" y="130" width="13.5" height="15" style="fill:none"/><rect x="79" y="136.97" width="2.51" height="1.5" style="fill:#231f20"/><rect x="74.5" y="136.97" width="2.51" height="1.5" style="fill:#231f20"/><rect x="70.02" y="136.97" width="2.51" height="1.5" style="fill:#231f20"/><rect x="82.5" y="130" width="13.5" height="15" style="fill:none"/><rect x="92.5" y="136.97" width="2.51" height="1.5" style="fill:#231f20"/><rect x="88" y="136.97" width="2.51" height="1.5" style="fill:#231f20"/><rect x="83.52" y="136.97" width="2.51" height="1.5" style="fill:#231f20"/><rect x="96" y="130" width="13.5" height="15" style="fill:none"/><rect x="106" y="136.97" width="2.51" height="1.5" style="fill:#231f20"/><rect x="101.5" y="136.97" width="2.51" height="1.5" style="fill:#231f20"/><rect x="97.02" y="136.97" width="2.51" height="1.5" style="fill:#231f20"/><rect x="109.5" y="130" width="13.5" height="15" style="fill:none"/><rect x="119.5" y="136.97" width="2.51" height="1.5" style="fill:#231f20"/><rect x="115" y="136.97" width="2.51" height="1.5" style="fill:#231f20"/><rect x="110.52" y="136.97" width="2.51" height="1.5" style="fill:#231f20"/><rect x="123" y="130" width="13.5" height="15" style="fill:none"/><rect x="133" y="136.97" width="2.51" height="1.5" style="fill:#231f20"/><rect x="128.5" y="136.97" width="2.51" height="1.5" style="fill:#231f20"/><rect x="124.02" y="136.97" width="2.51" height="1.5" style="fill:#231f20"/><rect x="136.5" y="130" width="13.5" height="15" style="fill:none"/><rect x="146.5" y="136.97" width="2.51" height="1.5" style="fill:#231f20"/><rect x="142" y="136.97" width="2.51" height="1.5" style="fill:#231f20"/><rect x="137.52" y="136.97" width="2.51" height="1.5" style="fill:#231f20"/><rect x="150" y="130" width="13.5" height="15" style="fill:none"/><rect x="160" y="136.97" width="2.51" height="1.5" style="fill:#231f20"/><rect x="155.5" y="136.97" width="2.51" height="1.5" style="fill:#231f20"/><rect x="151.02" y="136.97" width="2.51" height="1.5" style="fill:#231f20"/><rect x="163.5" y="130" width="13.5" height="15" style="fill:none"/><rect x="173.5" y="136.97" width="2.51" height="1.5" style="fill:#231f20"/><rect x="169" y="136.97" width="2.51" height="1.5" style="fill:#231f20"/><rect x="164.52" y="136.97" width="2.51" height="1.5" style="fill:#231f20"/><rect x="177" y="130" width="13.5" height="15" style="fill:none"/><rect x="187" y="136.97" width="2.51" height="1.5" style="fill:#231f20"/><rect x="182.5" y="136.97" width="2.51" height="1.5" style="fill:#231f20"/><rect x="178.02" y="136.97" width="2.51" height="1.5" style="fill:#231f20"/><rect x="190.5" y="130" width="13.5" height="15" style="fill:none"/><rect x="200.5" y="136.97" width="2.51" height="1.5" style="fill:#231f20"/><rect x="196" y="136.97" width="2.51" height="1.5" style="fill:#231f20"/><rect x="191.52" y="136.97" width="2.51" height="1.5" style="fill:#231f20"/><rect x="204" y="130" width="13.5" height="15" style="fill:none"/><rect x="214" y="136.97" width="2.51" height="1.5" style="fill:#231f20"/><rect x="209.5" y="136.97" width="2.51" height="1.5" style="fill:#231f20"/><rect x="205.02" y="136.97" width="2.51" height="1.5" style="fill:#231f20"/><rect x="217.5" y="130" width="13.5" height="15" style="fill:none"/><rect x="227.5" y="136.97" width="2.51" height="1.5" style="fill:#231f20"/><rect x="223" y="136.97" width="2.51" height="1.5" style="fill:#231f20"/><rect x="218.52" y="136.97" width="2.51" height="1.5" style="fill:#231f20"/><rect x="231" y="145" width="15" height="12.75" style="fill:none"/><rect x="237.53" y="154.44" width="1.5" height="2.37" style="fill:#231f20"/><rect x="237.53" y="150.2" width="1.5" height="2.37" style="fill:#231f20"/><rect x="237.53" y="145.97" width="1.5" height="2.37" style="fill:#231f20"/><rect x="231" y="157.75" width="15" height="12.75" style="fill:none"/><rect x="237.53" y="167.19" width="1.5" height="2.37" style="fill:#231f20"/><rect x="237.53" y="162.95" width="1.5" height="2.37" style="fill:#231f20"/><rect x="237.53" y="158.72" width="1.5" height="2.37" style="fill:#231f20"/><rect x="231" y="170.5" width="15" height="12.75" style="fill:none"/><rect x="237.53" y="179.94" width="1.5" height="2.37" style="fill:#231f20"/><rect x="237.53" y="175.7" width="1.5" height="2.37" style="fill:#231f20"/><rect x="237.53" y="171.47" width="1.5" height="2.37" style="fill:#231f20"/><rect x="231" y="183.25" width="15" height="12.75" style="fill:none"/><rect x="237.53" y="192.69" width="1.5" height="2.37" style="fill:#231f20"/><rect x="237.53" y="188.45" width="1.5" height="2.37" style="fill:#231f20"/><rect x="237.53" y="184.22" width="1.5" height="2.37" style="fill:#231f20"/><rect x="217.5" y="196" width="13.5" height="15" style="fill:none"/><rect x="218.5" y="202.53" width="2.51" height="1.5" style="fill:#231f20"/><rect x="222.99" y="202.53" width="2.51" height="1.5" style="fill:#231f20"/><rect x="227.47" y="202.53" width="2.51" height="1.5" style="fill:#231f20"/><rect x="204" y="196" width="13.5" height="15" style="fill:none"/><rect x="205" y="202.53" width="2.51" height="1.5" style="fill:#231f20"/><rect x="209.49" y="202.53" width="2.51" height="1.5" style="fill:#231f20"/><rect x="213.97" y="202.53" width="2.51" height="1.5" style="fill:#231f20"/><rect x="190.5" y="196" width="13.5" height="15" style="fill:none"/><rect x="191.5" y="202.53" width="2.51" height="1.5" style="fill:#231f20"/><rect x="195.99" y="202.53" width="2.51" height="1.5" style="fill:#231f20"/><rect x="200.47" y="202.53" width="2.51" height="1.5" style="fill:#231f20"/><rect x="177" y="196" width="13.5" height="15" style="fill:none"/><rect x="178" y="202.53" width="2.51" height="1.5" style="fill:#231f20"/><rect x="182.49" y="202.53" width="2.51" height="1.5" style="fill:#231f20"/><rect x="186.97" y="202.53" width="2.51" height="1.5" style="fill:#231f20"/><rect x="163.5" y="196" width="13.5" height="15" style="fill:none"/><rect x="164.5" y="202.53" width="2.51" height="1.5" style="fill:#231f20"/><rect x="168.99" y="202.53" width="2.51" height="1.5" style="fill:#231f20"/><rect x="173.47" y="202.53" width="2.51" height="1.5" style="fill:#231f20"/><rect x="150" y="196" width="13.5" height="15" style="fill:none"/><rect x="151" y="202.53" width="2.51" height="1.5" style="fill:#231f20"/><rect x="155.49" y="202.53" width="2.51" height="1.5" style="fill:#231f20"/><rect x="159.97" y="202.53" width="2.51" height="1.5" style="fill:#231f20"/><rect x="136.5" y="196" width="13.5" height="15" style="fill:none"/><rect x="137.5" y="202.53" width="2.51" height="1.5" style="fill:#231f20"/><rect x="141.99" y="202.53" width="2.51" height="1.5" style="fill:#231f20"/><rect x="146.47" y="202.53" width="2.51" height="1.5" style="fill:#231f20"/><rect x="123" y="196" width="13.5" height="15" style="fill:none"/><rect x="124" y="202.53" width="2.51" height="1.5" style="fill:#231f20"/><rect x="128.49" y="202.53" width="2.51" height="1.5" style="fill:#231f20"/><rect x="132.97" y="202.53" width="2.51" height="1.5" style="fill:#231f20"/><rect x="109.5" y="196" width="13.5" height="15" style="fill:none"/><rect x="110.5" y="202.53" width="2.51" height="1.5" style="fill:#231f20"/><rect x="114.99" y="202.53" width="2.51" height="1.5" style="fill:#231f20"/><rect x="119.47" y="202.53" width="2.51" height="1.5" style="fill:#231f20"/><rect x="96" y="196" width="13.5" height="15" style="fill:none"/><rect x="97" y="202.53" width="2.51" height="1.5" style="fill:#231f20"/><rect x="101.49" y="202.53" width="2.51" height="1.5" style="fill:#231f20"/><rect x="105.97" y="202.53" width="2.51" height="1.5" style="fill:#231f20"/><rect x="82.5" y="196" width="13.5" height="15" style="fill:none"/><rect x="83.5" y="202.53" width="2.51" height="1.5" style="fill:#231f20"/><rect x="87.99" y="202.53" width="2.51" height="1.5" style="fill:#231f20"/><rect x="92.47" y="202.53" width="2.51" height="1.5" style="fill:#231f20"/><rect x="69" y="196" width="13.5" height="15" style="fill:none"/><rect x="70" y="202.53" width="2.51" height="1.5" style="fill:#231f20"/><rect x="74.49" y="202.53" width="2.51" height="1.5" style="fill:#231f20"/><rect x="78.97" y="202.53" width="2.51" height="1.5" style="fill:#231f20"/><rect x="55.5" y="196" width="13.5" height="15" style="fill:none"/><rect x="56.5" y="202.53" width="2.51" height="1.5" style="fill:#231f20"/><rect x="60.99" y="202.53" width="2.51" height="1.5" style="fill:#231f20"/><rect x="65.47" y="202.53" width="2.51" height="1.5" style="fill:#231f20"/><rect x="42" y="196" width="13.5" height="15" style="fill:none"/><rect x="43" y="202.53" width="2.51" height="1.5" style="fill:#231f20"/><rect x="47.49" y="202.53" width="2.51" height="1.5" style="fill:#231f20"/><rect x="51.97" y="202.53" width="2.51" height="1.5" style="fill:#231f20"/><rect x="28.5" y="196" width="13.5" height="15" style="fill:none"/><rect x="29.5" y="202.53" width="2.51" height="1.5" style="fill:#231f20"/><rect x="33.99" y="202.53" width="2.51" height="1.5" style="fill:#231f20"/><rect x="38.47" y="202.53" width="2.51" height="1.5" style="fill:#231f20"/><rect x="15" y="196" width="13.5" height="15" style="fill:none"/><rect x="16" y="202.53" width="2.51" height="1.5" style="fill:#231f20"/><rect x="20.49" y="202.53" width="2.51" height="1.5" style="fill:#231f20"/><rect x="24.97" y="202.53" width="2.51" height="1.5" style="fill:#231f20"/><rect x="6.86" y="141.47" width="1.51" height="2.5" style="fill:#231f20"/><polygon points="6.86 136.97 6.86 139.47 8.37 139.47 8.37 138.47 9.36 138.47 9.36 136.97 6.86 136.97" style="fill:#231f20;fill-rule:evenodd"/><rect x="11.36" y="136.97" width="2.5" height="1.5" style="fill:#231f20"/><rect x="232.03" y="136.86" width="2.5" height="1.51" style="fill:#231f20"/><polygon points="239.03 136.86 236.53 136.86 236.53 138.37 237.53 138.37 237.53 139.36 239.03 139.36 239.03 136.86" style="fill:#231f20;fill-rule:evenodd"/><rect x="237.53" y="141.36" width="1.5" height="2.5" style="fill:#231f20"/><rect x="237.63" y="197.03" width="1.51" height="2.5" style="fill:#231f20"/><polygon points="239.14 204.03 239.14 201.53 237.63 201.53 237.63 202.53 236.64 202.53 236.64 204.03 239.14 204.03" style="fill:#231f20;fill-rule:evenodd"/><rect x="232.14" y="202.53" width="2.5" height="1.5" style="fill:#231f20"/><rect x="11.47" y="202.63" width="2.5" height="1.51" style="fill:#231f20"/><polygon points="6.97 204.14 9.47 204.14 9.47 202.63 8.47 202.63 8.47 201.64 6.97 201.64 6.97 204.14" style="fill:#231f20;fill-rule:evenodd"/><rect x="6.97" y="197.14" width="1.5" height="2.5" style="fill:#231f20"/><rect x="19.6" y="156.5" width="71.04" height="33" rx="11.5" ry="11.5" style="fill:#fff"/><path d="M79.14,157a11,11,0,0,1,11,11v10a11,11,0,0,1-11,11h-48a11,11,0,0,1-11-11V168a11,11,0,0,1,11-11h48m0-1h-48a12,12,0,0,0-12,12v10a12,12,0,0,0,12,12h48a12,12,0,0,0,12-12V168a12,12,0,0,0-12-12Z"/><text transform="translate(44.91 177.88)" style="font-size:12px;font-family:MyriadPro-Regular, Myriad Pro">base</text><rect x="155.67" y="156.5" width="71.04" height="33" rx="11.5" ry="11.5" style="fill:#fff"/><path d="M215.21,157a11,11,0,0,1,11,11v10a11,11,0,0,1-11,11h-48a11,11,0,0,1-11-11V168a11,11,0,0,1,11-11h48m0-1h-48a12,12,0,0,0-12,12v10a12,12,0,0,0,12,12h48a12,12,0,0,0,12-12V168a12,12,0,0,0-12-12Z"/><text transform="translate(171.98 177.88)" style="font-size:12px;font-family:MyriadPro-Regular, Myriad Pro">ne<tspan x="12.67" y="0" style="letter-spacing:0.008992513020833334em">t</tspan><tspan x="16.75" y="0" style="letter-spacing:-0.010009765625em">w</tspan><tspan x="25.46" y="0" style="letter-spacing:0.000040690104166666664em">o</tspan><tspan x="32.05" y="0" style="letter-spacing:0.003987630208333333em">r</tspan><tspan x="36.02" y="0">k</tspan></text><line x1="79.5" y1="60.5" x2="113.65" y2="37.45" style="fill:none;stroke:#000;stroke-miterlimit:10"/><polygon points="119.5 33.5 113.53 42.44 113.21 37.74 108.98 35.7 119.5 33.5"/><line x1="163.5" y1="60.5" x2="125.52" y2="37.19" style="fill:none;stroke:#000;stroke-miterlimit:10"/><polygon points="119.5 33.5 130.1 35.24 125.97 37.47 125.85 42.17 119.5 33.5"/><line x1="119.5" y1="137.5" x2="61.36" y2="98.44" style="fill:none;stroke:#000;stroke-miterlimit:10"/><polygon points="55.5 94.5 66.03 96.67 61.8 98.73 61.49 103.42 55.5 94.5"/><line x1="119.5" y1="137.5" x2="181.53" y2="98.27" style="fill:none;stroke:#000;stroke-miterlimit:10"/><polygon points="187.5 94.5 181.26 103.25 181.09 98.56 176.92 96.38 187.5 94.5"/></svg>